<mxfile host="Electron" modified="2024-03-30T13:11:37.424Z" agent="Mozilla/5.0 (Windows NT 10.0; Win64; x64) AppleWebKit/537.36 (KHTML, like Gecko) draw.io/24.1.0 Chrome/120.0.6099.109 Electron/28.1.0 Safari/537.36" etag="022KS0eH8l4gUL2jeIM7" version="24.1.0" type="device">
  <diagram name="Page-1" id="-6TPv4HsKuLjW797vbfA">
    <mxGraphModel dx="2120" dy="1954" grid="1" gridSize="10" guides="1" tooltips="1" connect="1" arrows="1" fold="1" page="1" pageScale="1" pageWidth="850" pageHeight="1100" math="0" shadow="0">
      <root>
        <mxCell id="0" />
        <mxCell id="1" parent="0" />
        <mxCell id="Vg2IRtHbQkvdqANkTwwd-4" style="edgeStyle=orthogonalEdgeStyle;rounded=0;orthogonalLoop=1;jettySize=auto;html=1;entryX=0.5;entryY=0;entryDx=0;entryDy=0;exitX=0.5;exitY=1;exitDx=0;exitDy=0;" parent="1" source="Vg2IRtHbQkvdqANkTwwd-1" target="Vg2IRtHbQkvdqANkTwwd-2" edge="1">
          <mxGeometry relative="1" as="geometry">
            <Array as="points">
              <mxPoint x="490" y="90" />
              <mxPoint x="490" y="110" />
              <mxPoint x="180" y="110" />
            </Array>
          </mxGeometry>
        </mxCell>
        <mxCell id="plKLD1YV0Ux0lDTgBnZz-1" style="edgeStyle=orthogonalEdgeStyle;rounded=0;orthogonalLoop=1;jettySize=auto;html=1;entryX=0.5;entryY=0;entryDx=0;entryDy=0;exitX=0.5;exitY=1;exitDx=0;exitDy=0;" edge="1" parent="1" source="Vg2IRtHbQkvdqANkTwwd-1" target="Vg2IRtHbQkvdqANkTwwd-3">
          <mxGeometry relative="1" as="geometry">
            <Array as="points">
              <mxPoint x="492" y="110" />
              <mxPoint x="1138" y="110" />
              <mxPoint x="1138" y="160" />
            </Array>
          </mxGeometry>
        </mxCell>
        <mxCell id="Vg2IRtHbQkvdqANkTwwd-1" value="MATCH TRA DUE CARD" style="rounded=0;whiteSpace=wrap;html=1;" parent="1" vertex="1">
          <mxGeometry x="390" y="30" width="205" height="60" as="geometry" />
        </mxCell>
        <mxCell id="plKLD1YV0Ux0lDTgBnZz-16" value="" style="edgeStyle=orthogonalEdgeStyle;rounded=0;orthogonalLoop=1;jettySize=auto;html=1;" edge="1" parent="1" source="Vg2IRtHbQkvdqANkTwwd-2" target="plKLD1YV0Ux0lDTgBnZz-15">
          <mxGeometry relative="1" as="geometry">
            <Array as="points">
              <mxPoint x="180" y="240" />
              <mxPoint x="640" y="240" />
            </Array>
          </mxGeometry>
        </mxCell>
        <mxCell id="plKLD1YV0Ux0lDTgBnZz-17" style="edgeStyle=orthogonalEdgeStyle;rounded=0;orthogonalLoop=1;jettySize=auto;html=1;entryX=0.5;entryY=0;entryDx=0;entryDy=0;" edge="1" parent="1" source="Vg2IRtHbQkvdqANkTwwd-2" target="plKLD1YV0Ux0lDTgBnZz-14">
          <mxGeometry relative="1" as="geometry">
            <Array as="points">
              <mxPoint x="180" y="240" />
              <mxPoint x="-57" y="240" />
            </Array>
          </mxGeometry>
        </mxCell>
        <mxCell id="Vg2IRtHbQkvdqANkTwwd-2" value="Il frontend richiede un nuovo match" style="rounded=0;whiteSpace=wrap;html=1;" parent="1" vertex="1">
          <mxGeometry x="110" y="160" width="140" height="60" as="geometry" />
        </mxCell>
        <mxCell id="Vg2IRtHbQkvdqANkTwwd-3" value="Salvare le compatibilitá" style="rounded=0;whiteSpace=wrap;html=1;" parent="1" vertex="1">
          <mxGeometry x="1057.5" y="160" width="160" height="60" as="geometry" />
        </mxCell>
        <mxCell id="Vg2IRtHbQkvdqANkTwwd-22" style="edgeStyle=orthogonalEdgeStyle;rounded=0;orthogonalLoop=1;jettySize=auto;html=1;entryX=0.5;entryY=0;entryDx=0;entryDy=0;" parent="1" source="Vg2IRtHbQkvdqANkTwwd-19" target="Vg2IRtHbQkvdqANkTwwd-21" edge="1">
          <mxGeometry relative="1" as="geometry" />
        </mxCell>
        <mxCell id="Vg2IRtHbQkvdqANkTwwd-19" value="Crea una tabella (CompatibilityCard) dove salvo le compatibilitá" style="rounded=1;whiteSpace=wrap;html=1;" parent="1" vertex="1">
          <mxGeometry x="1037.5" y="290" width="200" height="60" as="geometry" />
        </mxCell>
        <mxCell id="Vg2IRtHbQkvdqANkTwwd-20" style="edgeStyle=orthogonalEdgeStyle;rounded=0;orthogonalLoop=1;jettySize=auto;html=1;entryX=0.5;entryY=0;entryDx=0;entryDy=0;" parent="1" source="Vg2IRtHbQkvdqANkTwwd-3" target="Vg2IRtHbQkvdqANkTwwd-19" edge="1">
          <mxGeometry relative="1" as="geometry" />
        </mxCell>
        <mxCell id="plKLD1YV0Ux0lDTgBnZz-113" style="edgeStyle=orthogonalEdgeStyle;rounded=0;orthogonalLoop=1;jettySize=auto;html=1;entryX=1;entryY=0.5;entryDx=0;entryDy=0;" edge="1" parent="1" source="Vg2IRtHbQkvdqANkTwwd-21" target="plKLD1YV0Ux0lDTgBnZz-107">
          <mxGeometry relative="1" as="geometry">
            <Array as="points">
              <mxPoint x="1040" y="530" />
            </Array>
          </mxGeometry>
        </mxCell>
        <mxCell id="plKLD1YV0Ux0lDTgBnZz-114" style="edgeStyle=orthogonalEdgeStyle;rounded=0;orthogonalLoop=1;jettySize=auto;html=1;entryX=0.999;entryY=0.38;entryDx=0;entryDy=0;entryPerimeter=0;" edge="1" parent="1" target="plKLD1YV0Ux0lDTgBnZz-102">
          <mxGeometry relative="1" as="geometry">
            <mxPoint x="1048.75" y="460" as="sourcePoint" />
            <mxPoint x="247.50000000000023" y="530" as="targetPoint" />
            <Array as="points">
              <mxPoint x="1049" y="520" />
              <mxPoint x="248" y="520" />
            </Array>
          </mxGeometry>
        </mxCell>
        <mxCell id="plKLD1YV0Ux0lDTgBnZz-115" style="edgeStyle=orthogonalEdgeStyle;rounded=0;orthogonalLoop=1;jettySize=auto;html=1;entryX=0.997;entryY=0.627;entryDx=0;entryDy=0;entryPerimeter=0;" edge="1" parent="1" target="plKLD1YV0Ux0lDTgBnZz-96">
          <mxGeometry relative="1" as="geometry">
            <mxPoint x="1057.5" y="460" as="sourcePoint" />
            <mxPoint x="-140" y="530" as="targetPoint" />
            <Array as="points">
              <mxPoint x="1058" y="540" />
              <mxPoint x="-140" y="540" />
            </Array>
          </mxGeometry>
        </mxCell>
        <mxCell id="Vg2IRtHbQkvdqANkTwwd-21" value="[CompatibilityCard]: id, fromCardId, toCardId, isCompatible, timestamp" style="rounded=1;whiteSpace=wrap;html=1;" parent="1" vertex="1">
          <mxGeometry x="937.5" y="400" width="400" height="60" as="geometry" />
        </mxCell>
        <mxCell id="plKLD1YV0Ux0lDTgBnZz-6" value="&lt;h1 style=&quot;margin-top: 0px;&quot;&gt;* Regola&lt;/h1&gt;&lt;div style=&quot;&quot;&gt;BusinessSeeksCreative --isCompatible--&amp;gt; CreativeSeeksBusiness&lt;/div&gt;&lt;div style=&quot;&quot;&gt;&lt;br&gt;&lt;/div&gt;&lt;div style=&quot;&quot;&gt;CreativeSeekCollaboration --isCompatible--&amp;gt; CreativeSeeksCollaboration&lt;/div&gt;&lt;div style=&quot;&quot;&gt;&lt;br&gt;&lt;/div&gt;&lt;div style=&quot;&quot;&gt;CreativeSeeksBusiness --isCompatible--&amp;gt; BusinessSeeksCreative&lt;/div&gt;" style="text;html=1;whiteSpace=wrap;overflow=hidden;rounded=0;align=left;" vertex="1" parent="1">
          <mxGeometry x="-50" y="-50" width="400" height="140" as="geometry" />
        </mxCell>
        <mxCell id="plKLD1YV0Ux0lDTgBnZz-23" style="edgeStyle=orthogonalEdgeStyle;rounded=0;orthogonalLoop=1;jettySize=auto;html=1;entryX=0.5;entryY=0;entryDx=0;entryDy=0;" edge="1" parent="1" source="plKLD1YV0Ux0lDTgBnZz-14" target="plKLD1YV0Ux0lDTgBnZz-18">
          <mxGeometry relative="1" as="geometry">
            <Array as="points">
              <mxPoint x="-57" y="360" />
              <mxPoint x="-347" y="360" />
            </Array>
          </mxGeometry>
        </mxCell>
        <mxCell id="plKLD1YV0Ux0lDTgBnZz-24" style="edgeStyle=orthogonalEdgeStyle;rounded=0;orthogonalLoop=1;jettySize=auto;html=1;entryX=0.5;entryY=0;entryDx=0;entryDy=0;" edge="1" parent="1" source="plKLD1YV0Ux0lDTgBnZz-14" target="plKLD1YV0Ux0lDTgBnZz-21">
          <mxGeometry relative="1" as="geometry" />
        </mxCell>
        <mxCell id="plKLD1YV0Ux0lDTgBnZz-25" style="edgeStyle=orthogonalEdgeStyle;rounded=0;orthogonalLoop=1;jettySize=auto;html=1;entryX=0.5;entryY=0;entryDx=0;entryDy=0;" edge="1" parent="1" source="plKLD1YV0Ux0lDTgBnZz-14" target="plKLD1YV0Ux0lDTgBnZz-20">
          <mxGeometry relative="1" as="geometry" />
        </mxCell>
        <mxCell id="plKLD1YV0Ux0lDTgBnZz-26" style="edgeStyle=orthogonalEdgeStyle;rounded=0;orthogonalLoop=1;jettySize=auto;html=1;entryX=0.5;entryY=0;entryDx=0;entryDy=0;" edge="1" parent="1" source="plKLD1YV0Ux0lDTgBnZz-14" target="plKLD1YV0Ux0lDTgBnZz-22">
          <mxGeometry relative="1" as="geometry">
            <Array as="points">
              <mxPoint x="-57" y="360" />
              <mxPoint x="245" y="360" />
            </Array>
          </mxGeometry>
        </mxCell>
        <mxCell id="plKLD1YV0Ux0lDTgBnZz-14" value="Sono un ProfileCreative" style="rounded=1;whiteSpace=wrap;html=1;" vertex="1" parent="1">
          <mxGeometry x="-130" y="270" width="145" height="60" as="geometry" />
        </mxCell>
        <mxCell id="plKLD1YV0Ux0lDTgBnZz-55" value="" style="edgeStyle=orthogonalEdgeStyle;rounded=0;orthogonalLoop=1;jettySize=auto;html=1;" edge="1" parent="1" source="plKLD1YV0Ux0lDTgBnZz-15" target="plKLD1YV0Ux0lDTgBnZz-54">
          <mxGeometry relative="1" as="geometry" />
        </mxCell>
        <mxCell id="plKLD1YV0Ux0lDTgBnZz-56" style="edgeStyle=orthogonalEdgeStyle;rounded=0;orthogonalLoop=1;jettySize=auto;html=1;entryX=0.5;entryY=0;entryDx=0;entryDy=0;" edge="1" parent="1" source="plKLD1YV0Ux0lDTgBnZz-15" target="plKLD1YV0Ux0lDTgBnZz-53">
          <mxGeometry relative="1" as="geometry" />
        </mxCell>
        <mxCell id="plKLD1YV0Ux0lDTgBnZz-15" value="Sono un ProfileBusiness" style="rounded=1;whiteSpace=wrap;html=1;" vertex="1" parent="1">
          <mxGeometry x="570" y="270" width="145" height="60" as="geometry" />
        </mxCell>
        <mxCell id="plKLD1YV0Ux0lDTgBnZz-97" value="" style="edgeStyle=orthogonalEdgeStyle;rounded=0;orthogonalLoop=1;jettySize=auto;html=1;" edge="1" parent="1" source="plKLD1YV0Ux0lDTgBnZz-18" target="plKLD1YV0Ux0lDTgBnZz-96">
          <mxGeometry relative="1" as="geometry" />
        </mxCell>
        <mxCell id="plKLD1YV0Ux0lDTgBnZz-18" value="Prendo il Set di&amp;nbsp;CreativeSeeksBusiness del ProfileCreative corrente" style="rounded=1;whiteSpace=wrap;html=1;" vertex="1" parent="1">
          <mxGeometry x="-440" y="390" width="185" height="60" as="geometry" />
        </mxCell>
        <mxCell id="plKLD1YV0Ux0lDTgBnZz-103" value="" style="edgeStyle=orthogonalEdgeStyle;rounded=0;orthogonalLoop=1;jettySize=auto;html=1;" edge="1" parent="1" source="plKLD1YV0Ux0lDTgBnZz-20" target="plKLD1YV0Ux0lDTgBnZz-102">
          <mxGeometry relative="1" as="geometry" />
        </mxCell>
        <mxCell id="plKLD1YV0Ux0lDTgBnZz-20" value="Prendo il Set di&amp;nbsp;CreativeSeeksCollaboration del ProfileCretive corrente" style="rounded=1;whiteSpace=wrap;html=1;" vertex="1" parent="1">
          <mxGeometry x="-42.5" y="390" width="185" height="60" as="geometry" />
        </mxCell>
        <mxCell id="plKLD1YV0Ux0lDTgBnZz-98" value="" style="edgeStyle=orthogonalEdgeStyle;rounded=0;orthogonalLoop=1;jettySize=auto;html=1;" edge="1" parent="1" source="plKLD1YV0Ux0lDTgBnZz-21" target="plKLD1YV0Ux0lDTgBnZz-96">
          <mxGeometry relative="1" as="geometry" />
        </mxCell>
        <mxCell id="plKLD1YV0Ux0lDTgBnZz-21" value="Prendo un BusinessSeeksCreative random" style="rounded=1;whiteSpace=wrap;html=1;" vertex="1" parent="1">
          <mxGeometry x="-232.5" y="390" width="150" height="60" as="geometry" />
        </mxCell>
        <mxCell id="plKLD1YV0Ux0lDTgBnZz-104" value="" style="edgeStyle=orthogonalEdgeStyle;rounded=0;orthogonalLoop=1;jettySize=auto;html=1;" edge="1" parent="1" source="plKLD1YV0Ux0lDTgBnZz-22" target="plKLD1YV0Ux0lDTgBnZz-102">
          <mxGeometry relative="1" as="geometry" />
        </mxCell>
        <mxCell id="plKLD1YV0Ux0lDTgBnZz-22" value="Prendo un CreativeSeeksCollaboration random" style="rounded=1;whiteSpace=wrap;html=1;" vertex="1" parent="1">
          <mxGeometry x="160" y="390" width="170" height="60" as="geometry" />
        </mxCell>
        <mxCell id="plKLD1YV0Ux0lDTgBnZz-36" value="" style="edgeStyle=orthogonalEdgeStyle;rounded=0;orthogonalLoop=1;jettySize=auto;html=1;" edge="1" parent="1" source="plKLD1YV0Ux0lDTgBnZz-28" target="plKLD1YV0Ux0lDTgBnZz-35">
          <mxGeometry relative="1" as="geometry" />
        </mxCell>
        <mxCell id="plKLD1YV0Ux0lDTgBnZz-28" value="Prendo tutte le coordinate di tutti i CreativeSeeksBusiness" style="rounded=1;whiteSpace=wrap;html=1;" vertex="1" parent="1">
          <mxGeometry x="-430" y="620" width="180" height="60" as="geometry" />
        </mxCell>
        <mxCell id="plKLD1YV0Ux0lDTgBnZz-37" value="" style="edgeStyle=orthogonalEdgeStyle;rounded=0;orthogonalLoop=1;jettySize=auto;html=1;" edge="1" parent="1" source="plKLD1YV0Ux0lDTgBnZz-29" target="plKLD1YV0Ux0lDTgBnZz-35">
          <mxGeometry relative="1" as="geometry" />
        </mxCell>
        <mxCell id="plKLD1YV0Ux0lDTgBnZz-29" value="Prendo le coordinate di BusinessSeeksCreative" style="rounded=1;whiteSpace=wrap;html=1;" vertex="1" parent="1">
          <mxGeometry x="-226.25" y="620" width="152.5" height="60" as="geometry" />
        </mxCell>
        <mxCell id="plKLD1YV0Ux0lDTgBnZz-39" value="" style="edgeStyle=orthogonalEdgeStyle;rounded=0;orthogonalLoop=1;jettySize=auto;html=1;" edge="1" parent="1" source="plKLD1YV0Ux0lDTgBnZz-35" target="plKLD1YV0Ux0lDTgBnZz-38">
          <mxGeometry relative="1" as="geometry" />
        </mxCell>
        <mxCell id="plKLD1YV0Ux0lDTgBnZz-40" value="&lt;font style=&quot;font-size: 24px;&quot;&gt;Trovato&lt;/font&gt;" style="edgeLabel;html=1;align=center;verticalAlign=middle;resizable=0;points=[];" vertex="1" connectable="0" parent="plKLD1YV0Ux0lDTgBnZz-39">
          <mxGeometry x="-0.1357" relative="1" as="geometry">
            <mxPoint as="offset" />
          </mxGeometry>
        </mxCell>
        <mxCell id="plKLD1YV0Ux0lDTgBnZz-35" value="Cerco una corrspondenza tra tutte le coordinate&amp;nbsp; di CreativeSeeksBusiness e le coordinate di BusinessSeeksCreative" style="rhombus;whiteSpace=wrap;html=1;" vertex="1" parent="1">
          <mxGeometry x="-382.5" y="750" width="290" height="140" as="geometry" />
        </mxCell>
        <mxCell id="plKLD1YV0Ux0lDTgBnZz-87" style="edgeStyle=orthogonalEdgeStyle;rounded=0;orthogonalLoop=1;jettySize=auto;html=1;entryX=0.5;entryY=0;entryDx=0;entryDy=0;" edge="1" parent="1" source="plKLD1YV0Ux0lDTgBnZz-38" target="plKLD1YV0Ux0lDTgBnZz-75">
          <mxGeometry relative="1" as="geometry">
            <Array as="points">
              <mxPoint x="-237.5" y="1060" />
              <mxPoint x="162.5" y="1060" />
            </Array>
          </mxGeometry>
        </mxCell>
        <mxCell id="plKLD1YV0Ux0lDTgBnZz-38" value="Invio al frontend il BusinessSeeksCreative" style="rounded=1;whiteSpace=wrap;html=1;" vertex="1" parent="1">
          <mxGeometry x="-322.5" y="970" width="170" height="60" as="geometry" />
        </mxCell>
        <mxCell id="plKLD1YV0Ux0lDTgBnZz-41" style="edgeStyle=orthogonalEdgeStyle;rounded=0;orthogonalLoop=1;jettySize=auto;html=1;entryX=1.003;entryY=0.44;entryDx=0;entryDy=0;entryPerimeter=0;" edge="1" parent="1" source="plKLD1YV0Ux0lDTgBnZz-35" target="plKLD1YV0Ux0lDTgBnZz-21">
          <mxGeometry relative="1" as="geometry">
            <Array as="points">
              <mxPoint x="-62" y="820" />
              <mxPoint x="-62" y="416" />
            </Array>
          </mxGeometry>
        </mxCell>
        <mxCell id="plKLD1YV0Ux0lDTgBnZz-42" value="&lt;font style=&quot;font-size: 24px;&quot;&gt;Non trovato&lt;/font&gt;" style="edgeLabel;html=1;align=center;verticalAlign=middle;resizable=0;points=[];" vertex="1" connectable="0" parent="plKLD1YV0Ux0lDTgBnZz-41">
          <mxGeometry x="-0.3391" y="1" relative="1" as="geometry">
            <mxPoint y="60" as="offset" />
          </mxGeometry>
        </mxCell>
        <mxCell id="plKLD1YV0Ux0lDTgBnZz-70" value="" style="edgeStyle=orthogonalEdgeStyle;rounded=0;orthogonalLoop=1;jettySize=auto;html=1;" edge="1" parent="1" source="plKLD1YV0Ux0lDTgBnZz-43" target="plKLD1YV0Ux0lDTgBnZz-47">
          <mxGeometry relative="1" as="geometry" />
        </mxCell>
        <mxCell id="plKLD1YV0Ux0lDTgBnZz-43" value="Prendo tutte le coordinate di tutti i CreativeSeeksCollaboration" style="rounded=1;whiteSpace=wrap;html=1;" vertex="1" parent="1">
          <mxGeometry x="-32.5" y="620" width="180" height="60" as="geometry" />
        </mxCell>
        <mxCell id="plKLD1YV0Ux0lDTgBnZz-71" value="" style="edgeStyle=orthogonalEdgeStyle;rounded=0;orthogonalLoop=1;jettySize=auto;html=1;" edge="1" parent="1" source="plKLD1YV0Ux0lDTgBnZz-44" target="plKLD1YV0Ux0lDTgBnZz-47">
          <mxGeometry relative="1" as="geometry" />
        </mxCell>
        <mxCell id="plKLD1YV0Ux0lDTgBnZz-44" value="Prendo le coordinate di CreativeSeeksCollaboration" style="rounded=1;whiteSpace=wrap;html=1;" vertex="1" parent="1">
          <mxGeometry x="167.5" y="620" width="170" height="60" as="geometry" />
        </mxCell>
        <mxCell id="plKLD1YV0Ux0lDTgBnZz-49" value="" style="edgeStyle=orthogonalEdgeStyle;rounded=0;orthogonalLoop=1;jettySize=auto;html=1;" edge="1" parent="1" source="plKLD1YV0Ux0lDTgBnZz-47" target="plKLD1YV0Ux0lDTgBnZz-48">
          <mxGeometry relative="1" as="geometry" />
        </mxCell>
        <mxCell id="plKLD1YV0Ux0lDTgBnZz-50" value="&lt;font style=&quot;font-size: 24px;&quot;&gt;Trovato&lt;/font&gt;" style="edgeLabel;html=1;align=center;verticalAlign=middle;resizable=0;points=[];" vertex="1" connectable="0" parent="plKLD1YV0Ux0lDTgBnZz-49">
          <mxGeometry x="-0.0802" y="-1" relative="1" as="geometry">
            <mxPoint as="offset" />
          </mxGeometry>
        </mxCell>
        <mxCell id="plKLD1YV0Ux0lDTgBnZz-51" style="edgeStyle=orthogonalEdgeStyle;rounded=0;orthogonalLoop=1;jettySize=auto;html=1;entryX=1;entryY=0.5;entryDx=0;entryDy=0;" edge="1" parent="1" source="plKLD1YV0Ux0lDTgBnZz-47" target="plKLD1YV0Ux0lDTgBnZz-22">
          <mxGeometry relative="1" as="geometry">
            <Array as="points">
              <mxPoint x="350" y="820" />
              <mxPoint x="350" y="420" />
            </Array>
          </mxGeometry>
        </mxCell>
        <mxCell id="plKLD1YV0Ux0lDTgBnZz-52" value="&lt;font style=&quot;font-size: 24px;&quot;&gt;Non trovato&lt;/font&gt;" style="edgeLabel;html=1;align=center;verticalAlign=middle;resizable=0;points=[];" vertex="1" connectable="0" parent="plKLD1YV0Ux0lDTgBnZz-51">
          <mxGeometry x="-0.2721" y="1" relative="1" as="geometry">
            <mxPoint x="1" y="66" as="offset" />
          </mxGeometry>
        </mxCell>
        <mxCell id="plKLD1YV0Ux0lDTgBnZz-47" value="Cerco una corrspondenza tra tutte le coordinate&amp;nbsp; di CreativeSeeksCollaboration e le coordinate di CreativeSeeksCollaboration" style="rhombus;whiteSpace=wrap;html=1;" vertex="1" parent="1">
          <mxGeometry x="17.5" y="750" width="290" height="140" as="geometry" />
        </mxCell>
        <mxCell id="plKLD1YV0Ux0lDTgBnZz-78" value="" style="edgeStyle=orthogonalEdgeStyle;rounded=0;orthogonalLoop=1;jettySize=auto;html=1;" edge="1" parent="1" source="plKLD1YV0Ux0lDTgBnZz-48" target="plKLD1YV0Ux0lDTgBnZz-75">
          <mxGeometry relative="1" as="geometry" />
        </mxCell>
        <mxCell id="plKLD1YV0Ux0lDTgBnZz-48" value="Invio al frontend il CreativeSeeksCollaboration" style="rounded=1;whiteSpace=wrap;html=1;" vertex="1" parent="1">
          <mxGeometry x="77.5" y="970" width="170" height="60" as="geometry" />
        </mxCell>
        <mxCell id="plKLD1YV0Ux0lDTgBnZz-108" value="" style="edgeStyle=orthogonalEdgeStyle;rounded=0;orthogonalLoop=1;jettySize=auto;html=1;" edge="1" parent="1" source="plKLD1YV0Ux0lDTgBnZz-53" target="plKLD1YV0Ux0lDTgBnZz-107">
          <mxGeometry relative="1" as="geometry" />
        </mxCell>
        <mxCell id="plKLD1YV0Ux0lDTgBnZz-53" value="Prendo il Set di&amp;nbsp;BusinessSeeksCreative del ProfileCreative corrente" style="rounded=1;whiteSpace=wrap;html=1;" vertex="1" parent="1">
          <mxGeometry x="450" y="390" width="185" height="60" as="geometry" />
        </mxCell>
        <mxCell id="plKLD1YV0Ux0lDTgBnZz-109" value="" style="edgeStyle=orthogonalEdgeStyle;rounded=0;orthogonalLoop=1;jettySize=auto;html=1;" edge="1" parent="1" source="plKLD1YV0Ux0lDTgBnZz-54" target="plKLD1YV0Ux0lDTgBnZz-107">
          <mxGeometry relative="1" as="geometry" />
        </mxCell>
        <mxCell id="plKLD1YV0Ux0lDTgBnZz-54" value="Prendo un CreativeSeeksBusiness random" style="rounded=1;whiteSpace=wrap;html=1;" vertex="1" parent="1">
          <mxGeometry x="670" y="390" width="150" height="60" as="geometry" />
        </mxCell>
        <mxCell id="plKLD1YV0Ux0lDTgBnZz-68" value="" style="edgeStyle=orthogonalEdgeStyle;rounded=0;orthogonalLoop=1;jettySize=auto;html=1;" edge="1" parent="1" source="plKLD1YV0Ux0lDTgBnZz-57" target="plKLD1YV0Ux0lDTgBnZz-62">
          <mxGeometry relative="1" as="geometry" />
        </mxCell>
        <mxCell id="plKLD1YV0Ux0lDTgBnZz-57" value="Prendo tutte le coordinate di tutti i BusinessSeeksCreative" style="rounded=1;whiteSpace=wrap;html=1;" vertex="1" parent="1">
          <mxGeometry x="460" y="620" width="180" height="60" as="geometry" />
        </mxCell>
        <mxCell id="plKLD1YV0Ux0lDTgBnZz-69" value="" style="edgeStyle=orthogonalEdgeStyle;rounded=0;orthogonalLoop=1;jettySize=auto;html=1;" edge="1" parent="1" source="plKLD1YV0Ux0lDTgBnZz-58" target="plKLD1YV0Ux0lDTgBnZz-62">
          <mxGeometry relative="1" as="geometry" />
        </mxCell>
        <mxCell id="plKLD1YV0Ux0lDTgBnZz-58" value="Prendo le coordinate di CreativeSeeksBusiness" style="rounded=1;whiteSpace=wrap;html=1;" vertex="1" parent="1">
          <mxGeometry x="676.25" y="620" width="152.5" height="60" as="geometry" />
        </mxCell>
        <mxCell id="plKLD1YV0Ux0lDTgBnZz-64" value="" style="edgeStyle=orthogonalEdgeStyle;rounded=0;orthogonalLoop=1;jettySize=auto;html=1;" edge="1" parent="1" source="plKLD1YV0Ux0lDTgBnZz-62" target="plKLD1YV0Ux0lDTgBnZz-63">
          <mxGeometry relative="1" as="geometry" />
        </mxCell>
        <mxCell id="plKLD1YV0Ux0lDTgBnZz-65" value="&lt;font style=&quot;font-size: 24px;&quot;&gt;Trovato&lt;/font&gt;" style="edgeLabel;html=1;align=center;verticalAlign=middle;resizable=0;points=[];" vertex="1" connectable="0" parent="plKLD1YV0Ux0lDTgBnZz-64">
          <mxGeometry x="0.0459" relative="1" as="geometry">
            <mxPoint y="-11" as="offset" />
          </mxGeometry>
        </mxCell>
        <mxCell id="plKLD1YV0Ux0lDTgBnZz-66" style="edgeStyle=orthogonalEdgeStyle;rounded=0;orthogonalLoop=1;jettySize=auto;html=1;entryX=1;entryY=0.5;entryDx=0;entryDy=0;" edge="1" parent="1" source="plKLD1YV0Ux0lDTgBnZz-62" target="plKLD1YV0Ux0lDTgBnZz-54">
          <mxGeometry relative="1" as="geometry">
            <Array as="points">
              <mxPoint x="840" y="820" />
              <mxPoint x="840" y="420" />
            </Array>
          </mxGeometry>
        </mxCell>
        <mxCell id="plKLD1YV0Ux0lDTgBnZz-67" value="&lt;font style=&quot;font-size: 24px;&quot;&gt;Non trovato&lt;/font&gt;" style="edgeLabel;html=1;align=center;verticalAlign=middle;resizable=0;points=[];" vertex="1" connectable="0" parent="plKLD1YV0Ux0lDTgBnZz-66">
          <mxGeometry x="-0.3351" relative="1" as="geometry">
            <mxPoint y="52" as="offset" />
          </mxGeometry>
        </mxCell>
        <mxCell id="plKLD1YV0Ux0lDTgBnZz-62" value="Cerco una corrspondenza tra tutte le coordinate&amp;nbsp; di BusinessSeeksCreative e le coordinate di CreativeSeeksBusiness" style="rhombus;whiteSpace=wrap;html=1;" vertex="1" parent="1">
          <mxGeometry x="508.75" y="750" width="290" height="140" as="geometry" />
        </mxCell>
        <mxCell id="plKLD1YV0Ux0lDTgBnZz-88" style="edgeStyle=orthogonalEdgeStyle;rounded=0;orthogonalLoop=1;jettySize=auto;html=1;entryX=0.5;entryY=0;entryDx=0;entryDy=0;" edge="1" parent="1" source="plKLD1YV0Ux0lDTgBnZz-63" target="plKLD1YV0Ux0lDTgBnZz-75">
          <mxGeometry relative="1" as="geometry">
            <Array as="points">
              <mxPoint x="653.5" y="1060" />
              <mxPoint x="162.5" y="1060" />
            </Array>
          </mxGeometry>
        </mxCell>
        <mxCell id="plKLD1YV0Ux0lDTgBnZz-63" value="Invio al frontend il CreativeSeeksBusiness" style="rounded=1;whiteSpace=wrap;html=1;" vertex="1" parent="1">
          <mxGeometry x="568.75" y="970" width="170" height="60" as="geometry" />
        </mxCell>
        <mxCell id="plKLD1YV0Ux0lDTgBnZz-85" value="" style="edgeStyle=orthogonalEdgeStyle;rounded=0;orthogonalLoop=1;jettySize=auto;html=1;" edge="1" parent="1" source="plKLD1YV0Ux0lDTgBnZz-75" target="plKLD1YV0Ux0lDTgBnZz-80">
          <mxGeometry relative="1" as="geometry" />
        </mxCell>
        <mxCell id="plKLD1YV0Ux0lDTgBnZz-86" value="&lt;font style=&quot;font-size: 24px;&quot;&gt;Like&lt;/font&gt;" style="edgeLabel;html=1;align=center;verticalAlign=middle;resizable=0;points=[];" vertex="1" connectable="0" parent="plKLD1YV0Ux0lDTgBnZz-85">
          <mxGeometry x="-0.0307" y="-1" relative="1" as="geometry">
            <mxPoint as="offset" />
          </mxGeometry>
        </mxCell>
        <mxCell id="plKLD1YV0Ux0lDTgBnZz-91" value="" style="edgeStyle=orthogonalEdgeStyle;rounded=0;orthogonalLoop=1;jettySize=auto;html=1;" edge="1" parent="1" source="plKLD1YV0Ux0lDTgBnZz-75">
          <mxGeometry relative="1" as="geometry">
            <mxPoint x="317.5" y="1150" as="targetPoint" />
          </mxGeometry>
        </mxCell>
        <mxCell id="plKLD1YV0Ux0lDTgBnZz-92" value="&lt;span style=&quot;font-size: 24px;&quot;&gt;No&lt;/span&gt;" style="edgeLabel;html=1;align=center;verticalAlign=middle;resizable=0;points=[];" vertex="1" connectable="0" parent="plKLD1YV0Ux0lDTgBnZz-91">
          <mxGeometry x="-0.1053" relative="1" as="geometry">
            <mxPoint as="offset" />
          </mxGeometry>
        </mxCell>
        <mxCell id="plKLD1YV0Ux0lDTgBnZz-75" value="Azione utente" style="rhombus;whiteSpace=wrap;html=1;" vertex="1" parent="1">
          <mxGeometry x="86.25" y="1090" width="152.5" height="120" as="geometry" />
        </mxCell>
        <mxCell id="plKLD1YV0Ux0lDTgBnZz-121" style="edgeStyle=orthogonalEdgeStyle;rounded=0;orthogonalLoop=1;jettySize=auto;html=1;entryX=0;entryY=0.5;entryDx=0;entryDy=0;" edge="1" parent="1" source="plKLD1YV0Ux0lDTgBnZz-80" target="plKLD1YV0Ux0lDTgBnZz-118">
          <mxGeometry relative="1" as="geometry" />
        </mxCell>
        <mxCell id="plKLD1YV0Ux0lDTgBnZz-80" value="&amp;nbsp;Frontend comunica al backend la compatibilitá" style="rounded=1;whiteSpace=wrap;html=1;" vertex="1" parent="1">
          <mxGeometry x="102.5" y="1270" width="120" height="60" as="geometry" />
        </mxCell>
        <mxCell id="plKLD1YV0Ux0lDTgBnZz-94" style="edgeStyle=orthogonalEdgeStyle;rounded=0;orthogonalLoop=1;jettySize=auto;html=1;entryX=0.5;entryY=1;entryDx=0;entryDy=0;" edge="1" parent="1" source="plKLD1YV0Ux0lDTgBnZz-93" target="Vg2IRtHbQkvdqANkTwwd-21">
          <mxGeometry relative="1" as="geometry">
            <Array as="points">
              <mxPoint x="1138" y="1150" />
              <mxPoint x="1138" y="460" />
            </Array>
          </mxGeometry>
        </mxCell>
        <mxCell id="plKLD1YV0Ux0lDTgBnZz-93" value="&amp;nbsp;Frontend comunica al backend la non compatibilitá" style="rounded=1;whiteSpace=wrap;html=1;" vertex="1" parent="1">
          <mxGeometry x="317.5" y="1120" width="120" height="60" as="geometry" />
        </mxCell>
        <mxCell id="plKLD1YV0Ux0lDTgBnZz-100" value="" style="edgeStyle=orthogonalEdgeStyle;rounded=0;orthogonalLoop=1;jettySize=auto;html=1;" edge="1" parent="1" source="plKLD1YV0Ux0lDTgBnZz-96" target="plKLD1YV0Ux0lDTgBnZz-29">
          <mxGeometry relative="1" as="geometry" />
        </mxCell>
        <mxCell id="plKLD1YV0Ux0lDTgBnZz-101" style="edgeStyle=orthogonalEdgeStyle;rounded=0;orthogonalLoop=1;jettySize=auto;html=1;entryX=0.5;entryY=0;entryDx=0;entryDy=0;" edge="1" parent="1" source="plKLD1YV0Ux0lDTgBnZz-96" target="plKLD1YV0Ux0lDTgBnZz-28">
          <mxGeometry relative="1" as="geometry" />
        </mxCell>
        <mxCell id="plKLD1YV0Ux0lDTgBnZz-96" value="Controllo in Tabella (CompatibilityCard) se l&#39;utente ha giá controllato questo match tra le due card" style="rounded=1;whiteSpace=wrap;html=1;" vertex="1" parent="1">
          <mxGeometry x="-330" y="490" width="172.5" height="80" as="geometry" />
        </mxCell>
        <mxCell id="plKLD1YV0Ux0lDTgBnZz-105" value="" style="edgeStyle=orthogonalEdgeStyle;rounded=0;orthogonalLoop=1;jettySize=auto;html=1;" edge="1" parent="1" source="plKLD1YV0Ux0lDTgBnZz-102" target="plKLD1YV0Ux0lDTgBnZz-44">
          <mxGeometry relative="1" as="geometry" />
        </mxCell>
        <mxCell id="plKLD1YV0Ux0lDTgBnZz-106" style="edgeStyle=orthogonalEdgeStyle;rounded=0;orthogonalLoop=1;jettySize=auto;html=1;entryX=0.5;entryY=0;entryDx=0;entryDy=0;" edge="1" parent="1" source="plKLD1YV0Ux0lDTgBnZz-102" target="plKLD1YV0Ux0lDTgBnZz-43">
          <mxGeometry relative="1" as="geometry" />
        </mxCell>
        <mxCell id="plKLD1YV0Ux0lDTgBnZz-102" value="Controllo in Tabella (CompatibilityCard) se l&#39;utente ha giá controllato questo match tra le due card" style="rounded=1;whiteSpace=wrap;html=1;" vertex="1" parent="1">
          <mxGeometry x="66.25" y="490" width="172.5" height="80" as="geometry" />
        </mxCell>
        <mxCell id="plKLD1YV0Ux0lDTgBnZz-110" value="" style="edgeStyle=orthogonalEdgeStyle;rounded=0;orthogonalLoop=1;jettySize=auto;html=1;" edge="1" parent="1" source="plKLD1YV0Ux0lDTgBnZz-107" target="plKLD1YV0Ux0lDTgBnZz-58">
          <mxGeometry relative="1" as="geometry" />
        </mxCell>
        <mxCell id="plKLD1YV0Ux0lDTgBnZz-111" style="edgeStyle=orthogonalEdgeStyle;rounded=0;orthogonalLoop=1;jettySize=auto;html=1;entryX=0.5;entryY=0;entryDx=0;entryDy=0;" edge="1" parent="1" source="plKLD1YV0Ux0lDTgBnZz-107" target="plKLD1YV0Ux0lDTgBnZz-57">
          <mxGeometry relative="1" as="geometry" />
        </mxCell>
        <mxCell id="plKLD1YV0Ux0lDTgBnZz-107" value="Controllo in Tabella (CompatibilityCard) se l&#39;utente ha giá controllato questo match tra le due card" style="rounded=1;whiteSpace=wrap;html=1;" vertex="1" parent="1">
          <mxGeometry x="570" y="490" width="172.5" height="80" as="geometry" />
        </mxCell>
        <mxCell id="plKLD1YV0Ux0lDTgBnZz-122" style="edgeStyle=orthogonalEdgeStyle;rounded=0;orthogonalLoop=1;jettySize=auto;html=1;entryX=0.5;entryY=1;entryDx=0;entryDy=0;" edge="1" parent="1" source="plKLD1YV0Ux0lDTgBnZz-118" target="Vg2IRtHbQkvdqANkTwwd-21">
          <mxGeometry relative="1" as="geometry" />
        </mxCell>
        <mxCell id="plKLD1YV0Ux0lDTgBnZz-123" value="&lt;font style=&quot;font-size: 24px;&quot;&gt;No&lt;/font&gt;" style="edgeLabel;html=1;align=center;verticalAlign=middle;resizable=0;points=[];" vertex="1" connectable="0" parent="plKLD1YV0Ux0lDTgBnZz-122">
          <mxGeometry x="-0.8892" relative="1" as="geometry">
            <mxPoint as="offset" />
          </mxGeometry>
        </mxCell>
        <mxCell id="plKLD1YV0Ux0lDTgBnZz-125" style="edgeStyle=orthogonalEdgeStyle;rounded=0;orthogonalLoop=1;jettySize=auto;html=1;entryX=0;entryY=0.5;entryDx=0;entryDy=0;" edge="1" parent="1" source="plKLD1YV0Ux0lDTgBnZz-118" target="plKLD1YV0Ux0lDTgBnZz-124">
          <mxGeometry relative="1" as="geometry">
            <Array as="points">
              <mxPoint x="595" y="1210" />
            </Array>
          </mxGeometry>
        </mxCell>
        <mxCell id="plKLD1YV0Ux0lDTgBnZz-126" value="&lt;font style=&quot;font-size: 24px;&quot;&gt;Si&lt;/font&gt;" style="edgeLabel;html=1;align=center;verticalAlign=middle;resizable=0;points=[];" vertex="1" connectable="0" parent="plKLD1YV0Ux0lDTgBnZz-125">
          <mxGeometry x="0.0667" y="-2" relative="1" as="geometry">
            <mxPoint as="offset" />
          </mxGeometry>
        </mxCell>
        <mxCell id="plKLD1YV0Ux0lDTgBnZz-118" value="Backend controlla se abbiamo un match" style="rhombus;whiteSpace=wrap;html=1;" vertex="1" parent="1">
          <mxGeometry x="530" y="1245" width="130" height="110" as="geometry" />
        </mxCell>
        <mxCell id="plKLD1YV0Ux0lDTgBnZz-127" style="edgeStyle=orthogonalEdgeStyle;rounded=0;orthogonalLoop=1;jettySize=auto;html=1;entryX=0.5;entryY=1;entryDx=0;entryDy=0;" edge="1" parent="1" source="plKLD1YV0Ux0lDTgBnZz-124" target="Vg2IRtHbQkvdqANkTwwd-21">
          <mxGeometry relative="1" as="geometry" />
        </mxCell>
        <mxCell id="plKLD1YV0Ux0lDTgBnZz-124" value="Ritorno al frontend il Match positivo" style="rounded=1;whiteSpace=wrap;html=1;" vertex="1" parent="1">
          <mxGeometry x="676.25" y="1180" width="120" height="60" as="geometry" />
        </mxCell>
      </root>
    </mxGraphModel>
  </diagram>
</mxfile>
